<svg aria-hidden="true" style="position: absolute; width: 0; height: 0; overflow: hidden;" version="1.1" xmlns="http://www.w3.org/2000/svg" xmlns:xlink="http://www.w3.org/1999/xlink">
<defs>
<symbol id="icon-trophy" viewBox="0 0 32 32">
<path d="M26 6v-4h-20v4h-6v4c0 3.314 2.686 6 6 6 0.627 0 1.232-0.096 1.801-0.275 1.443 2.063 3.644 3.556 6.199 4.075v6.2h-2c-2.209 0-4 1.791-4 4h16c0-2.209-1.791-4-4-4h-2v-6.2c2.555-0.519 4.756-2.012 6.199-4.075 0.568 0.179 1.173 0.275 1.801 0.275 3.314 0 6-2.686 6-6v-4h-6zM6 13.625c-1.999 0-3.625-1.626-3.625-3.625v-2h3.625v2c0 1.256 0.232 2.457 0.655 3.565-0.213 0.039-0.431 0.060-0.655 0.060zM29.625 10c0 1.999-1.626 3.625-3.625 3.625-0.224 0-0.442-0.021-0.655-0.060 0.423-1.107 0.655-2.309 0.655-3.565v-2h3.625v2z"></path>
</symbol>
<symbol id="icon-crown-bronze" viewBox="0 0 32 32">
<path fill="#cd7f32" style="fill: var(--color1, #cd7f32)" d="M29.775 7.81c-1.229 0-2.227 0.996-2.227 2.225 0 0.782 0.404 1.471 1.015 1.867-0.579 1.986-1.743 4.877-2.798 5.477-2.003 1.138-3.818-0.582-2.939-5.294 1.113-0.122 1.98-1.066 1.98-2.212 0-1.229-0.996-2.226-2.226-2.226s-2.226 0.996-2.226 2.226c0 0.759 0.381 1.428 0.961 1.83-0.594 2.629-1.469 3.679-2.535 3.533-1.611-0.22-1.906-3.126-1.932-7.184 0.809-0.333 1.376-1.129 1.376-2.057 0-1.229-0.996-2.226-2.226-2.226s-2.225 0.996-2.225 2.226c0 0.928 0.568 1.724 1.375 2.057-0.025 4.058-0.319 6.964-1.932 7.184-1.066 0.146-1.941-0.904-2.534-3.533 0.581-0.402 0.96-1.071 0.96-1.83 0-1.229-0.996-2.226-2.225-2.226-1.23 0-2.227 0.996-2.227 2.226 0 1.146 0.867 2.090 1.98 2.212 0.879 4.712-0.936 6.432-2.938 5.294-1.057-0.6-2.22-3.49-2.799-5.477 0.61-0.396 1.014-1.085 1.014-1.867 0-1.229-0.996-2.225-2.227-2.225-1.228 0-2.225 0.996-2.225 2.225 0 1.163 0.893 2.116 2.029 2.217l1.608 10.979h24.726l1.607-10.979c1.138-0.101 2.029-1.054 2.029-2.217 0-1.229-0.996-2.225-2.225-2.225z"></path>
<path fill="#cd7f32" style="fill: var(--color1, #cd7f32)" d="M4.37 28.23h23.261l0.439-3h-24.14z"></path>
</symbol>
<symbol id="icon-crown-silver" viewBox="0 0 32 32">
<path fill="#aab" style="fill: var(--color2, #aab)" d="M29.775 7.81c-1.229 0-2.227 0.996-2.227 2.225 0 0.782 0.404 1.471 1.015 1.867-0.579 1.986-1.743 4.877-2.798 5.477-2.003 1.138-3.818-0.582-2.939-5.294 1.113-0.122 1.98-1.066 1.98-2.212 0-1.229-0.996-2.226-2.226-2.226s-2.226 0.996-2.226 2.226c0 0.759 0.381 1.428 0.961 1.83-0.594 2.629-1.469 3.679-2.535 3.533-1.611-0.22-1.906-3.126-1.932-7.184 0.809-0.333 1.376-1.129 1.376-2.057 0-1.229-0.996-2.226-2.226-2.226s-2.225 0.996-2.225 2.226c0 0.928 0.568 1.724 1.375 2.057-0.025 4.058-0.319 6.964-1.932 7.184-1.066 0.146-1.941-0.904-2.534-3.533 0.581-0.402 0.96-1.071 0.96-1.83 0-1.229-0.996-2.226-2.225-2.226-1.23 0-2.227 0.996-2.227 2.226 0 1.146 0.867 2.090 1.98 2.212 0.879 4.712-0.936 6.432-2.938 5.294-1.057-0.6-2.22-3.49-2.799-5.477 0.61-0.396 1.014-1.085 1.014-1.867 0-1.229-0.996-2.225-2.227-2.225-1.228 0-2.225 0.996-2.225 2.225 0 1.163 0.893 2.116 2.029 2.217l1.608 10.979h24.726l1.607-10.979c1.138-0.101 2.029-1.054 2.029-2.217 0-1.229-0.996-2.225-2.225-2.225z"></path>
<path fill="#aab" style="fill: var(--color2, #aab)" d="M4.37 28.23h23.261l0.439-3h-24.14z"></path>
</symbol>
<symbol id="icon-crown-gold" viewBox="0 0 32 32">
<path fill="#f3cb33" style="fill: var(--color3, #f3cb33)" d="M29.775 7.81c-1.229 0-2.227 0.996-2.227 2.225 0 0.782 0.404 1.471 1.015 1.867-0.579 1.986-1.743 4.877-2.798 5.477-2.003 1.138-3.818-0.582-2.939-5.294 1.113-0.122 1.98-1.066 1.98-2.212 0-1.229-0.996-2.226-2.226-2.226s-2.226 0.996-2.226 2.226c0 0.759 0.381 1.428 0.961 1.83-0.594 2.629-1.469 3.679-2.535 3.533-1.611-0.22-1.906-3.126-1.932-7.184 0.809-0.333 1.376-1.129 1.376-2.057 0-1.229-0.996-2.226-2.226-2.226s-2.225 0.996-2.225 2.226c0 0.928 0.568 1.724 1.375 2.057-0.025 4.058-0.319 6.964-1.932 7.184-1.066 0.146-1.941-0.904-2.534-3.533 0.581-0.402 0.96-1.071 0.96-1.83 0-1.229-0.996-2.226-2.225-2.226-1.23 0-2.227 0.996-2.227 2.226 0 1.146 0.867 2.090 1.98 2.212 0.879 4.712-0.936 6.432-2.938 5.294-1.057-0.6-2.22-3.49-2.799-5.477 0.61-0.396 1.014-1.085 1.014-1.867 0-1.229-0.996-2.225-2.227-2.225-1.228 0-2.225 0.996-2.225 2.225 0 1.163 0.893 2.116 2.029 2.217l1.608 10.979h24.726l1.607-10.979c1.138-0.101 2.029-1.054 2.029-2.217 0-1.229-0.996-2.225-2.225-2.225z"></path>
<path fill="#f3cb33" style="fill: var(--color3, #f3cb33)" d="M4.37 28.23h23.261l0.439-3h-24.14z"></path>
</symbol>
<symbol id="icon-medal-bronze" viewBox="0 0 32 32">
<path fill="#ca6e59" style="fill: var(--color1, #ca6e59)" d="M16 13.333c-5.145 0-9.333 4.187-9.333 9.333s4.188 9.333 9.333 9.333 9.333-4.187 9.333-9.333-4.188-9.333-9.333-9.333zM18.666 24v1.333c0 1.471-1.196 2.667-2.667 2.667s-2.667-1.196-2.667-2.667c0-0.368 0.299-0.667 0.667-0.667s0.667 0.299 0.667 0.667c0 0.735 0.597 1.333 1.333 1.333s1.333-0.599 1.333-1.333v-1.333c0-0.735-0.597-1.333-1.333-1.333h-0.667c-0.368 0-0.667-0.299-0.667-0.667s0.299-0.667 0.667-0.667h0.667c0.736 0 1.333-0.599 1.333-1.333s-0.597-1.333-1.333-1.333-1.333 0.599-1.333 1.333c0 0.368-0.299 0.667-0.667 0.667s-0.667-0.299-0.667-0.667c0-1.471 1.196-2.667 2.667-2.667s2.667 1.196 2.667 2.667c0 0.796-0.351 1.511-0.905 2 0.555 0.489 0.905 1.204 0.905 2z"></path>
<path fill="#3E5871" style="fill: var(--color1, #3E5871)" d="M26.545 0.284c-0.124-0.177-0.328-0.284-0.545-0.284h-6.667c-0.281 0-0.532 0.177-0.628 0.443l-2.731 7.659-2.679-7.655c-0.095-0.268-0.345-0.447-0.629-0.447h-6.667c-0.217 0-0.421 0.107-0.545 0.284-0.125 0.177-0.155 0.405-0.081 0.611l4.417 12.144c0.067 0.184 0.212 0.331 0.396 0.397 0.075 0.028 0.152 0.041 0.231 0.041 0.115 0 0.228-0.029 0.329-0.087 1.601-0.909 3.419-1.391 5.253-1.391 0.068 0 0.133 0.005 0.197 0.009l0.184 0.011h0.053c0.111 0 0.211-0.033 0.303-0.081l0.277 0.093c0.045 0.016 0.093 0.027 0.141 0.031 1.444 0.156 2.823 0.601 4.099 1.327 0.101 0.057 0.215 0.087 0.329 0.087 0.079 0 0.156-0.013 0.231-0.041 0.184-0.068 0.329-0.213 0.396-0.397l4.417-12.144c0.072-0.203 0.043-0.431-0.083-0.609z"></path>
</symbol>
<symbol id="icon-medal-silver" viewBox="0 0 32 32">
<path fill="#aab" style="fill: var(--color2, #aab)" d="M16 13.333c-5.145 0-9.333 4.187-9.333 9.333s4.188 9.333 9.333 9.333 9.333-4.187 9.333-9.333-4.188-9.333-9.333-9.333zM18 26.667c0.368 0 0.667 0.299 0.667 0.667s-0.299 0.667-0.667 0.667h-4c-0.252 0-0.483-0.143-0.596-0.368s-0.088-0.496 0.063-0.697l2.8-3.733c0.688-0.919 1.067-2.055 1.067-3.201 0-0.735-0.597-1.333-1.333-1.333s-1.333 0.599-1.333 1.333v0.667c0 0.368-0.299 0.667-0.667 0.667s-0.667-0.299-0.667-0.667v-0.667c0-1.471 1.196-2.667 2.667-2.667s2.667 1.196 2.667 2.667c0 1.433-0.473 2.855-1.335 4l-1.999 2.667h2.667z"></path>
<path fill="#3E5871" style="fill: var(--color2, #3E5871)" d="M26.545 0.284c-0.124-0.177-0.328-0.284-0.545-0.284h-6.667c-0.281 0-0.532 0.177-0.628 0.443l-2.731 7.659-2.679-7.655c-0.095-0.268-0.345-0.447-0.629-0.447h-6.667c-0.217 0-0.421 0.107-0.545 0.284-0.125 0.177-0.155 0.405-0.081 0.611l4.417 12.144c0.067 0.184 0.212 0.331 0.396 0.397 0.075 0.028 0.152 0.041 0.231 0.041 0.115 0 0.228-0.029 0.329-0.087 1.601-0.909 3.419-1.391 5.253-1.391 0.068 0 0.133 0.005 0.197 0.009l0.184 0.011h0.053c0.111 0 0.211-0.033 0.303-0.081l0.277 0.093c0.045 0.016 0.093 0.027 0.141 0.031 1.444 0.156 2.823 0.601 4.099 1.327 0.101 0.057 0.215 0.087 0.329 0.087 0.079 0 0.156-0.013 0.231-0.041 0.184-0.068 0.329-0.213 0.396-0.397l4.417-12.144c0.072-0.203 0.043-0.431-0.083-0.609z"></path>
</symbol>
<symbol id="icon-medal-gold" viewBox="0 0 32 32">
<path  fill="#f3cb33" style="fill: var(--color3, #f3cb33)" d="M16 13.333c-5.147 0-9.333 4.187-9.333 9.333s4.187 9.333 9.333 9.333 9.333-4.187 9.333-9.333-4.187-9.333-9.333-9.333zM17.333 27.333c0 0.368-0.299 0.667-0.667 0.667s-0.667-0.299-0.667-0.667v-8.253l-1.701 0.851c-0.331 0.164-0.729 0.031-0.895-0.299s-0.031-0.729 0.299-0.895l2.667-1.333c0.207-0.104 0.451-0.093 0.648 0.029 0.196 0.123 0.316 0.336 0.316 0.567v9.333z"></path>
<path fill="#3E5871" style="fill: var(--color3, #3E5871)" d="M26.547 0.285c-0.125-0.179-0.329-0.285-0.547-0.285h-6.667c-0.281 0-0.533 0.177-0.628 0.443l-2.731 7.656-2.679-7.653c-0.093-0.268-0.347-0.445-0.629-0.445h-6.667c-0.217 0-0.421 0.107-0.547 0.284-0.124 0.177-0.155 0.404-0.080 0.611l4.417 12.144c0.067 0.184 0.212 0.331 0.396 0.397 0.075 0.028 0.153 0.041 0.231 0.041 0.113 0 0.228-0.029 0.329-0.087 1.603-0.909 3.419-1.391 5.253-1.391 0.067 0 0.132 0.005 0.197 0.009l0.184 0.011c0.013 0.001 0.027 0.001 0.039 0 0.103 0.012 0.209-0.027 0.309-0.083l0.284 0.096c0.047 0.016 0.093 0.027 0.141 0.031 1.444 0.156 2.823 0.601 4.099 1.325 0.101 0.057 0.216 0.087 0.329 0.087 0.077 0 0.156-0.013 0.231-0.041 0.184-0.068 0.329-0.213 0.396-0.397l4.417-12.144c0.075-0.203 0.044-0.431-0.080-0.608z"></path>
</symbol>
</defs>
</svg>
