<svg aria-hidden="true" style="position: absolute; width: 0; height: 0; overflow: hidden;" version="1.1" xmlns="http://www.w3.org/2000/svg" xmlns:xlink="http://www.w3.org/1999/xlink">
<defs>
<symbol id="icon-trophy" viewBox="0 0 32 32">
<path d="M26 6v-4h-20v4h-6v4c0 3.314 2.686 6 6 6 0.627 0 1.232-0.096 1.801-0.275 1.443 2.063 3.644 3.556 6.199 4.075v6.2h-2c-2.209 0-4 1.791-4 4h16c0-2.209-1.791-4-4-4h-2v-6.2c2.555-0.519 4.756-2.012 6.199-4.075 0.568 0.179 1.173 0.275 1.801 0.275 3.314 0 6-2.686 6-6v-4h-6zM6 13.625c-1.999 0-3.625-1.626-3.625-3.625v-2h3.625v2c0 1.256 0.232 2.457 0.655 3.565-0.213 0.039-0.431 0.060-0.655 0.060zM29.625 10c0 1.999-1.626 3.625-3.625 3.625-0.224 0-0.442-0.021-0.655-0.060 0.423-1.107 0.655-2.309 0.655-3.565v-2h3.625v2z"></path>
</symbol>
<symbol id="icon-crown-bronze" viewBox="0 0 32 32">
<path fill="#cd7f32" style="fill: var(--color1, #cd7f32)" d="M29.775 7.81c-1.229 0-2.227 0.996-2.227 2.225 0 0.782 0.404 1.471 1.015 1.867-0.579 1.986-1.743 4.877-2.798 5.477-2.003 1.138-3.818-0.582-2.939-5.294 1.113-0.122 1.98-1.066 1.98-2.212 0-1.229-0.996-2.226-2.226-2.226s-2.226 0.996-2.226 2.226c0 0.759 0.381 1.428 0.961 1.83-0.594 2.629-1.469 3.679-2.535 3.533-1.611-0.22-1.906-3.126-1.932-7.184 0.809-0.333 1.376-1.129 1.376-2.057 0-1.229-0.996-2.226-2.226-2.226s-2.225 0.996-2.225 2.226c0 0.928 0.568 1.724 1.375 2.057-0.025 4.058-0.319 6.964-1.932 7.184-1.066 0.146-1.941-0.904-2.534-3.533 0.581-0.402 0.96-1.071 0.96-1.83 0-1.229-0.996-2.226-2.225-2.226-1.23 0-2.227 0.996-2.227 2.226 0 1.146 0.867 2.090 1.98 2.212 0.879 4.712-0.936 6.432-2.938 5.294-1.057-0.6-2.22-3.49-2.799-5.477 0.61-0.396 1.014-1.085 1.014-1.867 0-1.229-0.996-2.225-2.227-2.225-1.228 0-2.225 0.996-2.225 2.225 0 1.163 0.893 2.116 2.029 2.217l1.608 10.979h24.726l1.607-10.979c1.138-0.101 2.029-1.054 2.029-2.217 0-1.229-0.996-2.225-2.225-2.225z"></path>
<path fill="#cd7f32" style="fill: var(--color1, #cd7f32)" d="M4.37 28.23h23.261l0.439-3h-24.14z"></path>
</symbol>
<symbol id="icon-crown-silver" viewBox="0 0 32 32">
<path fill="#aab" style="fill: var(--color2, #aab)" d="M29.775 7.81c-1.229 0-2.227 0.996-2.227 2.225 0 0.782 0.404 1.471 1.015 1.867-0.579 1.986-1.743 4.877-2.798 5.477-2.003 1.138-3.818-0.582-2.939-5.294 1.113-0.122 1.98-1.066 1.98-2.212 0-1.229-0.996-2.226-2.226-2.226s-2.226 0.996-2.226 2.226c0 0.759 0.381 1.428 0.961 1.83-0.594 2.629-1.469 3.679-2.535 3.533-1.611-0.22-1.906-3.126-1.932-7.184 0.809-0.333 1.376-1.129 1.376-2.057 0-1.229-0.996-2.226-2.226-2.226s-2.225 0.996-2.225 2.226c0 0.928 0.568 1.724 1.375 2.057-0.025 4.058-0.319 6.964-1.932 7.184-1.066 0.146-1.941-0.904-2.534-3.533 0.581-0.402 0.96-1.071 0.96-1.83 0-1.229-0.996-2.226-2.225-2.226-1.23 0-2.227 0.996-2.227 2.226 0 1.146 0.867 2.090 1.98 2.212 0.879 4.712-0.936 6.432-2.938 5.294-1.057-0.6-2.22-3.49-2.799-5.477 0.61-0.396 1.014-1.085 1.014-1.867 0-1.229-0.996-2.225-2.227-2.225-1.228 0-2.225 0.996-2.225 2.225 0 1.163 0.893 2.116 2.029 2.217l1.608 10.979h24.726l1.607-10.979c1.138-0.101 2.029-1.054 2.029-2.217 0-1.229-0.996-2.225-2.225-2.225z"></path>
<path fill="#aab" style="fill: var(--color2, #aab)" d="M4.37 28.23h23.261l0.439-3h-24.14z"></path>
</symbol>
<symbol id="icon-crown-gold" viewBox="0 0 32 32">
<path fill="#f3cb33" style="fill: var(--color3, #f3cb33)" d="M29.775 7.81c-1.229 0-2.227 0.996-2.227 2.225 0 0.782 0.404 1.471 1.015 1.867-0.579 1.986-1.743 4.877-2.798 5.477-2.003 1.138-3.818-0.582-2.939-5.294 1.113-0.122 1.98-1.066 1.98-2.212 0-1.229-0.996-2.226-2.226-2.226s-2.226 0.996-2.226 2.226c0 0.759 0.381 1.428 0.961 1.83-0.594 2.629-1.469 3.679-2.535 3.533-1.611-0.22-1.906-3.126-1.932-7.184 0.809-0.333 1.376-1.129 1.376-2.057 0-1.229-0.996-2.226-2.226-2.226s-2.225 0.996-2.225 2.226c0 0.928 0.568 1.724 1.375 2.057-0.025 4.058-0.319 6.964-1.932 7.184-1.066 0.146-1.941-0.904-2.534-3.533 0.581-0.402 0.96-1.071 0.96-1.83 0-1.229-0.996-2.226-2.225-2.226-1.23 0-2.227 0.996-2.227 2.226 0 1.146 0.867 2.090 1.98 2.212 0.879 4.712-0.936 6.432-2.938 5.294-1.057-0.6-2.22-3.49-2.799-5.477 0.61-0.396 1.014-1.085 1.014-1.867 0-1.229-0.996-2.225-2.227-2.225-1.228 0-2.225 0.996-2.225 2.225 0 1.163 0.893 2.116 2.029 2.217l1.608 10.979h24.726l1.607-10.979c1.138-0.101 2.029-1.054 2.029-2.217 0-1.229-0.996-2.225-2.225-2.225z"></path>
<path fill="#f3cb33" style="fill: var(--color3, #f3cb33)" d="M4.37 28.23h23.261l0.439-3h-24.14z"></path>
</symbol>
<symbol id="icon-medal-bronze" viewBox="0 0 32 32">
<path fill="#e67300" style="fill: var(--color1, #e67300)" opacity="0.5" d="M17.060 2.667h-2.667c-2.514 0-3.771 0-4.552 0.781s-0.781 2.038-0.781 4.552v4.667h13.333v-4.667c0-2.514 0-3.771-0.781-4.552s-2.038-0.781-4.552-0.781z"></path>
<path fill="#e67300" style="fill: var(--color1, #e67300)" d="M17.641 7.711l6.392 3.486c1.285 0.701 2.085 2.048 2.085 3.512v6.583c0 1.464-0.8 2.811-2.085 3.512l-6.392 3.486c-1.194 0.651-2.636 0.651-3.83 0l-6.392-3.486c-1.285-0.701-2.085-2.048-2.085-3.512v-6.583c0-1.464 0.8-2.811 2.085-3.512l6.392-3.486c1.194-0.651 2.636-0.651 3.83 0zM15.726 14c-0.379 0-0.632 0.454-1.139 1.363l-0.131 0.235c-0.144 0.258-0.216 0.387-0.328 0.473s-0.252 0.117-0.532 0.18l-0.255 0.058c-0.984 0.223-1.476 0.334-1.593 0.71s0.218 0.769 0.889 1.553l0.174 0.203c0.191 0.223 0.286 0.334 0.329 0.472s0.028 0.287-0 0.584l-0.026 0.271c-0.101 1.047-0.152 1.57 0.154 1.802s0.767 0.021 1.688-0.404l0.238-0.11c0.262-0.121 0.393-0.181 0.531-0.181s0.27 0.060 0.531 0.181l0.238 0.11c0.921 0.424 1.382 0.636 1.688 0.404s0.256-0.756 0.154-1.802l-0.026-0.271c-0.029-0.297-0.043-0.446-0-0.584s0.138-0.249 0.329-0.472l0.174-0.203c0.671-0.784 1.006-1.177 0.889-1.553s-0.609-0.488-1.593-0.71l-0.255-0.058c-0.28-0.063-0.419-0.095-0.532-0.18s-0.184-0.214-0.328-0.473l-0.131-0.235c-0.507-0.909-0.76-1.363-1.139-1.363z"></path>
</symbol>
<symbol id="icon-medal-silver" viewBox="0 0 32 32">
<path fill="#aab" style="fill: var(--color2, #aab)" opacity="0.5" d="M17.060 2.667h-2.667c-2.514 0-3.771 0-4.552 0.781s-0.781 2.038-0.781 4.552v4.667h13.333v-4.667c0-2.514 0-3.771-0.781-4.552s-2.038-0.781-4.552-0.781z"></path>
<path fill="#aab" style="fill: var(--color2, #aab)" d="M17.641 7.711l6.392 3.486c1.285 0.701 2.085 2.048 2.085 3.512v6.583c0 1.464-0.8 2.811-2.085 3.512l-6.392 3.486c-1.194 0.651-2.636 0.651-3.83 0l-6.392-3.486c-1.285-0.701-2.085-2.048-2.085-3.512v-6.583c0-1.464 0.8-2.811 2.085-3.512l6.392-3.486c1.194-0.651 2.636-0.651 3.83 0zM15.726 14c-0.379 0-0.632 0.454-1.139 1.363l-0.131 0.235c-0.144 0.258-0.216 0.387-0.328 0.473s-0.252 0.117-0.532 0.18l-0.255 0.058c-0.984 0.223-1.476 0.334-1.593 0.71s0.218 0.769 0.889 1.553l0.174 0.203c0.191 0.223 0.286 0.334 0.329 0.472s0.028 0.287-0 0.584l-0.026 0.271c-0.101 1.047-0.152 1.57 0.154 1.802s0.767 0.021 1.688-0.404l0.238-0.11c0.262-0.121 0.393-0.181 0.531-0.181s0.27 0.060 0.531 0.181l0.238 0.11c0.921 0.424 1.382 0.636 1.688 0.404s0.256-0.756 0.154-1.802l-0.026-0.271c-0.029-0.297-0.043-0.446-0-0.584s0.138-0.249 0.329-0.472l0.174-0.203c0.671-0.784 1.006-1.177 0.889-1.553s-0.609-0.488-1.593-0.71l-0.255-0.058c-0.28-0.063-0.419-0.095-0.532-0.18s-0.184-0.214-0.328-0.473l-0.131-0.235c-0.507-0.909-0.76-1.363-1.139-1.363z"></path>
</symbol>
<symbol id="icon-medal-gold" viewBox="0 0 32 32">
<path fill="#f3cb33" style="fill: var(--color3, #f3cb33)" opacity="0.5" d="M17.060 2.667h-2.667c-2.514 0-3.771 0-4.552 0.781s-0.781 2.038-0.781 4.552v4.667h13.333v-4.667c0-2.514 0-3.771-0.781-4.552s-2.038-0.781-4.552-0.781z"></path>
<path fill="#f3cb33" style="fill: var(--color3, #f3cb33)" d="M17.641 7.711l6.392 3.486c1.285 0.701 2.085 2.048 2.085 3.512v6.583c0 1.464-0.8 2.811-2.085 3.512l-6.392 3.486c-1.194 0.651-2.636 0.651-3.83 0l-6.392-3.486c-1.285-0.701-2.085-2.048-2.085-3.512v-6.583c0-1.464 0.8-2.811 2.085-3.512l6.392-3.486c1.194-0.651 2.636-0.651 3.83 0zM15.726 14c-0.379 0-0.632 0.454-1.139 1.363l-0.131 0.235c-0.144 0.258-0.216 0.387-0.328 0.473s-0.252 0.117-0.532 0.18l-0.255 0.058c-0.984 0.223-1.476 0.334-1.593 0.71s0.218 0.769 0.889 1.553l0.174 0.203c0.191 0.223 0.286 0.334 0.329 0.472s0.028 0.287-0 0.584l-0.026 0.271c-0.101 1.047-0.152 1.57 0.154 1.802s0.767 0.021 1.688-0.404l0.238-0.11c0.262-0.121 0.393-0.181 0.531-0.181s0.27 0.060 0.531 0.181l0.238 0.11c0.921 0.424 1.382 0.636 1.688 0.404s0.256-0.756 0.154-1.802l-0.026-0.271c-0.029-0.297-0.043-0.446-0-0.584s0.138-0.249 0.329-0.472l0.174-0.203c0.671-0.784 1.006-1.177 0.889-1.553s-0.609-0.488-1.593-0.71l-0.255-0.058c-0.28-0.063-0.419-0.095-0.532-0.18s-0.184-0.214-0.328-0.473l-0.131-0.235c-0.507-0.909-0.76-1.363-1.139-1.363z"></path>
</symbol>
</defs>
</svg>
